# xmcd
#
# Track frame offsets: 
#        150
#        40333
#        86674
#        136872
#        176327
#        224413
#
# Disc length: 3801 seconds
#
# Revision: 1
# Processed by: cddbd v1.5.2PL0 Copyright (c) Steve Scherf et al.
# Submitted via: ExactAudioCopy v0.99pb5
#
DISCID=4d0ed706
DTITLE=Archie Shepp, Clifford Jarvis, Charles McGee, Charles Eubanks /
DTITLE=Lover Man
DYEAR=1979
DGENRE=Jazz
TTITLE0=Lover Man <J. Davis, R. Ramirez, J. Sherman>
TTITLE1=Au Privave <C. Parker>
TTITLE2=Parker`s Mood <C. Parker>
TTITLE3=Now The Time <C. Parker>
TTITLE4=Premier Bal <S. Bechet>
TTITLE5=Petite Fleur <S. Bechet>
EXTD=YEAR: 1979
EXTT0=
EXTT1=
EXTT2=
EXTT3=
EXTT4=
EXTT5=
PLAYORDER=
